<?xml version="1.0" standalone="no"?>
<!DOCTYPE svg PUBLIC "-//W3C//DTD SVG 20010904//EN"
 "http://www.w3.org/TR/2001/REC-SVG-20010904/DTD/svg10.dtd">
<svg version="1.0" xmlns="http://www.w3.org/2000/svg"
 width="1024.000000pt" height="1024.000000pt" viewBox="0 0 1024.000000 1024.000000"
 preserveAspectRatio="xMidYMid meet">
<metadata>
Created by potrace 1.16, written by Peter Selinger 2001-2019
</metadata>
<g transform="translate(0.000000,1024.000000) scale(0.100000,-0.100000)"
fill="#000000" stroke="none">
<path d="M5000 9189 c-30 -11 -75 -22 -99 -25 -129 -13 -416 -188 -503 -308
-46 -64 -32 -24 20 55 27 41 77 101 113 133 67 62 46 54 -56 -21 -60 -44 -60
-44 20 31 44 42 75 76 69 76 -18 0 -98 -56 -133 -94 -19 -20 -40 -36 -47 -36
-7 0 -22 -15 -33 -32 -29 -46 -68 -88 -81 -88 -5 0 -10 -4 -10 -10 0 -5 -4
-10 -10 -10 -5 0 -10 11 -10 24 0 34 39 156 60 186 33 48 33 55 1 25 -39 -36
-82 -118 -105 -200 -9 -33 -24 -78 -33 -100 -8 -22 -20 -78 -27 -125 l-11 -85
-27 45 c-37 64 -58 143 -58 221 0 40 -5 71 -11 75 -9 5 -10 -24 -7 -107 4 -97
8 -123 31 -173 15 -32 27 -67 27 -77 0 -18 -2 -18 -37 4 -21 12 -50 28 -65 34
-50 22 -62 54 -55 151 3 52 14 108 26 140 24 60 28 90 7 50 -8 -16 -18 -34
-23 -40 -19 -30 -33 -87 -33 -135 0 -29 -4 -53 -10 -53 -5 0 -10 26 -10 58
l-1 57 -16 -30 -17 -30 -6 30 c-6 30 -6 30 -13 5 -4 -14 -7 -72 -8 -130 l-1
-105 -14 55 c-7 30 -14 89 -15 130 -2 41 -6 86 -9 100 -20 72 -25 -267 -6
-380 l6 -35 -17 33 c-9 17 -21 32 -25 32 -11 0 -4 -25 29 -104 13 -32 23 -60
21 -61 -2 -2 -11 2 -20 9 -22 16 -61 105 -78 176 -27 114 -31 132 -35 129 -9
-10 29 -212 51 -265 13 -33 24 -64 24 -67 0 -16 -17 -5 -32 21 -13 20 -18 23
-18 9 0 -9 6 -26 12 -37 10 -15 10 -22 1 -31 -9 -9 -22 -7 -52 8 -52 26 -52
13 -1 -33 22 -20 39 -39 36 -41 -2 -2 -26 7 -53 20 -56 29 -151 125 -182 184
-27 53 -47 66 -27 18 41 -97 158 -237 224 -268 12 -6 22 -13 22 -17 0 -3 -20
-20 -44 -37 -51 -36 -153 -157 -204 -241 -80 -131 -179 -367 -198 -472 -17
-91 -19 -260 -3 -260 6 0 8 -9 4 -21 -4 -12 -9 -62 -11 -111 -2 -50 -8 -115
-14 -146 -13 -73 -13 -75 6 -68 15 6 16 -3 11 -82 -4 -48 -9 -108 -12 -132 -6
-53 6 -33 28 45 12 38 15 44 16 23 1 -30 21 -40 21 -11 0 35 10 3 30 -102 21
-108 38 -170 51 -190 3 -5 14 -35 24 -65 10 -30 22 -60 27 -67 10 -13 29 -174
21 -186 -2 -4 -8 -5 -13 -2 -4 3 -10 -2 -14 -10 -3 -10 1 -15 13 -15 22 0 36
-29 21 -44 -16 -16 -12 -29 20 -65 64 -69 88 -153 71 -244 -14 -72 -44 -159
-71 -202 -54 -88 -63 -221 -21 -307 23 -48 130 -168 150 -168 6 0 17 14 26 30
9 16 11 30 6 30 -11 0 -31 63 -31 95 0 17 2 17 10 5 6 -8 15 -33 21 -54 6 -21
20 -52 32 -68 19 -26 22 -43 23 -173 1 -79 5 -162 9 -185 5 -32 3 -46 -10 -60
-25 -28 -3 -53 37 -44 25 5 29 3 27 -13 -1 -10 0 -25 4 -33 13 -37 26 -112 32
-195 4 -49 16 -127 27 -173 11 -46 18 -84 16 -86 -169 -111 -294 -222 -399
-359 -80 -104 -152 -228 -250 -434 -174 -364 -211 -435 -238 -453 -4 -3 -20
-34 -34 -70 -47 -120 -46 -364 3 -511 24 -70 98 -223 136 -278 13 -20 24 -46
24 -58 0 -13 38 -136 84 -275 164 -490 222 -709 321 -1218 31 -157 49 -241 80
-378 5 -20 11 -22 80 -22 82 0 80 -2 66 65 -65 306 -132 657 -128 673 2 10 11
-20 22 -65 l18 -83 336 6 c185 4 370 9 412 13 l76 6 -18 60 c-11 33 -23 69
-29 80 -5 11 -16 38 -24 60 -8 22 -26 72 -41 110 -15 39 -33 90 -40 115 -7 25
-52 169 -100 320 -47 151 -90 293 -93 315 l-8 40 -59 2 c-33 1 -89 7 -125 13
-76 13 -234 59 -227 66 3 3 49 -4 104 -16 54 -12 145 -24 202 -27 100 -6 103
-6 97 14 -8 24 14 46 33 34 9 -6 10 -11 2 -15 -15 -10 -14 -37 3 -88 29 -88
106 -338 152 -493 26 -88 63 -203 82 -255 18 -52 38 -111 44 -130 6 -19 13
-39 18 -45 13 -17 73 -216 67 -222 -3 -3 -195 -8 -426 -11 -296 -3 -421 -8
-421 -16 0 -27 73 -419 91 -488 l10 -38 459 0 c357 0 459 3 463 13 4 9 6 9 6
0 1 -9 19 -13 57 -13 48 0 55 2 51 18 -9 32 -58 196 -76 257 -10 33 -29 94
-41 135 -34 114 -156 464 -200 575 -18 46 -99 309 -96 312 7 7 214 -550 288
-777 30 -91 79 -245 109 -342 l54 -178 47 0 46 0 -23 85 c-13 47 -37 122 -54
167 -16 46 -50 146 -75 223 -26 77 -51 148 -56 157 -6 10 -10 26 -10 37 0 10
-6 24 -14 31 -8 6 -12 19 -9 27 4 9 -1 21 -12 29 -15 11 -16 16 -5 29 11 14
10 17 -8 22 -24 6 -29 27 -10 39 7 5 4 10 -11 15 -18 7 -20 12 -11 29 9 17 8
20 -8 20 -15 0 -18 6 -15 24 4 18 0 25 -18 29 -19 5 -21 9 -11 19 18 18 14 38
-8 38 -22 0 -26 10 -9 27 14 14 3 33 -17 33 -11 0 -12 4 -4 19 14 27 13 28
-17 36 l-28 7 23 17 c24 18 20 31 -10 31 -22 0 -23 8 -1 32 15 17 15 18 -10
18 -29 0 -34 9 -16 27 14 14 2 36 -17 29 -19 -7 -27 11 -9 22 22 12 8 44 -15
37 -27 -8 -34 12 -9 25 19 11 19 13 5 29 -9 10 -16 25 -16 35 0 13 -5 16 -22
10 -22 -6 -22 -6 -5 13 22 25 22 33 -2 33 -26 0 -37 18 -17 26 18 7 21 30 6
39 -6 4 -17 1 -25 -5 -12 -10 -15 -9 -15 3 0 8 6 17 13 20 9 3 8 9 -4 23 -9
10 -20 34 -24 52 -6 29 -4 32 17 32 33 0 186 -28 303 -55 55 -13 120 -26 145
-29 l45 -7 -55 21 c-30 11 -54 20 -55 20 0 0 -1 19 -1 42 -1 24 -11 90 -23
148 -26 131 -28 235 -5 226 9 -3 24 -6 33 -6 10 0 35 -11 55 -25 20 -14 46
-25 56 -25 11 0 20 -4 20 -9 0 -4 18 -21 40 -36 22 -15 40 -34 40 -41 0 -8 5
-14 12 -14 6 0 22 -10 34 -21 14 -14 39 -23 65 -25 23 -1 46 -8 50 -15 6 -10
13 -11 31 -1 13 6 34 16 48 22 14 5 32 14 40 18 49 27 84 42 100 42 16 0 18
-6 14 -48 -2 -26 -9 -74 -15 -107 -6 -33 -12 -79 -12 -102 -1 -42 -7 -48 -57
-67 -52 -20 135 12 293 50 143 35 195 52 218 71 16 14 32 23 35 20 3 -2 -10
-31 -29 -63 -43 -75 -140 -258 -184 -349 -19 -38 -39 -78 -44 -87 -5 -10 -9
-26 -9 -37 0 -10 -7 -21 -15 -25 -8 -3 -15 -14 -15 -25 0 -11 -4 -23 -10 -26
-6 -3 -10 -17 -10 -30 0 -12 -7 -25 -15 -29 -8 -3 -12 -11 -9 -19 3 -8 -2 -20
-11 -27 -8 -7 -15 -20 -15 -30 0 -10 -6 -23 -14 -29 -8 -7 -12 -21 -9 -31 3
-12 -1 -22 -11 -26 -9 -3 -16 -17 -16 -30 0 -15 -6 -24 -15 -24 -11 0 -14 -7
-9 -25 4 -15 2 -25 -5 -25 -6 0 -11 -11 -11 -25 0 -14 -6 -28 -14 -31 -8 -3
-13 -11 -10 -18 3 -7 -2 -26 -11 -42 -8 -16 -15 -37 -15 -47 0 -9 -4 -26 -10
-37 -5 -11 -14 -29 -20 -40 -5 -11 -10 -29 -10 -39 0 -11 -4 -22 -8 -25 -5 -3
-15 -31 -22 -63 -7 -32 -17 -63 -22 -70 -5 -6 -8 -17 -7 -25 1 -7 -1 -20 -4
-28 -19 -44 -76 -231 -82 -267 l-7 -43 46 0 c44 0 45 1 51 38 3 20 10 51 15
67 4 17 20 77 35 135 25 102 83 283 110 345 7 17 24 62 38 100 14 39 40 104
57 145 18 41 60 145 95 230 83 204 158 373 245 548 38 79 70 146 70 150 0 9
61 44 67 38 2 -2 -12 -26 -32 -52 -76 -99 -325 -663 -505 -1144 -60 -161 -74
-205 -135 -430 -20 -74 -39 -143 -41 -152 -5 -16 2 -18 55 -18 33 0 63 5 66
11 4 6 14 38 21 72 8 34 37 134 65 222 28 88 60 189 71 225 12 36 24 70 28 75
4 6 19 42 33 80 60 168 165 421 254 613 52 114 124 268 158 342 48 103 67 136
83 138 38 6 62 -73 33 -109 l-18 -23 5 35 4 34 -26 -35 c-31 -40 -142 -263
-214 -431 -27 -63 -68 -152 -90 -199 -60 -126 -182 -432 -176 -441 3 -5 116
-8 252 -7 136 0 231 3 212 5 -19 1 -63 6 -98 9 -34 3 -60 10 -57 15 4 5 -1 9
-10 9 -8 0 -20 11 -24 24 -14 35 -15 137 -2 170 6 16 9 37 6 46 -5 16 11 67
25 80 11 10 57 217 60 269 0 2 -8 -3 -17 -10 -15 -12 -16 -12 -9 6 5 11 11 28
13 38 3 9 10 17 17 17 6 0 2 8 -9 16 -20 16 -20 16 3 9 18 -5 22 -2 23 17 1
13 1 28 0 35 -1 7 7 9 19 6 15 -4 20 -1 20 13 0 16 -2 17 -10 4 -8 -13 -10
-12 -10 3 0 14 -5 17 -20 12 -27 -8 -27 16 0 40 19 18 20 17 20 -4 0 -13 4
-19 10 -16 6 4 8 16 4 28 -6 20 -5 20 10 8 14 -12 20 -11 41 9 14 13 25 32 25
42 0 14 8 18 40 18 33 0 40 3 40 20 0 13 12 26 35 37 19 9 32 20 29 24 -2 4
15 12 38 18 37 8 32 9 -31 4 -54 -4 -72 -3 -67 6 4 6 28 11 54 11 26 0 99 14
162 30 108 29 467 148 555 184 l40 17 -26 -24 c-18 -16 -24 -29 -19 -37 6 -10
18 -3 44 25 20 21 36 44 36 51 0 7 29 39 65 72 36 33 65 62 65 65 0 3 19 34
42 69 79 118 223 416 252 523 16 55 30 106 32 114 10 33 11 1 2 -54 -20 -128
-123 -362 -246 -558 -32 -51 -70 -126 -86 -167 -16 -41 -53 -122 -82 -180
-186 -373 -369 -933 -529 -1620 -13 -58 -27 -115 -31 -128 -7 -23 -6 -23 87
-20 l93 3 8 35 c4 19 25 129 47 245 35 182 99 442 195 795 14 52 53 172 87
265 33 94 81 235 105 315 73 237 111 330 214 530 129 249 182 401 182 518 0
69 -23 122 -52 122 -13 0 -20 7 -20 20 0 18 3 19 23 10 20 -10 21 -10 4 4 -20
16 -41 12 -69 -11 -20 -18 -40 -9 -31 13 4 10 -2 17 -16 21 -11 3 -21 12 -21
20 0 7 -7 25 -16 38 -9 13 -13 33 -9 44 4 14 0 21 -16 26 -18 6 -20 12 -16 41
4 25 2 34 -9 34 -8 0 -14 7 -14 15 0 8 -7 15 -15 15 -8 0 -15 5 -15 11 0 6 9
9 20 6 11 -3 20 -1 20 4 0 5 -6 9 -13 9 -23 0 -37 21 -26 42 6 12 6 18 -1 18
-5 0 -10 9 -10 19 0 14 -5 18 -20 14 -20 -5 -29 12 -9 19 5 2 7 11 4 21 -4 9
-11 15 -15 12 -4 -3 -10 4 -13 15 -3 11 -12 20 -21 20 -13 0 -15 4 -6 19 15
29 12 44 -6 37 -14 -5 -16 -1 -11 23 5 21 2 31 -9 35 -10 4 -14 13 -10 22 4
11 -1 18 -14 21 -15 4 -18 9 -10 18 8 9 8 15 0 20 -5 3 -10 17 -10 31 0 13 -4
32 -10 42 -5 9 -21 51 -35 92 -53 152 -98 218 -199 295 -55 41 -197 115 -221
115 -20 0 -19 9 10 115 24 86 76 361 95 510 13 94 68 260 131 392 28 59 62
131 75 160 29 63 72 235 81 321 3 35 9 58 13 52 7 -11 30 30 30 56 0 8 6 24
13 37 6 12 12 23 12 23 0 1 9 4 20 7 14 4 25 -1 38 -19 17 -23 17 -27 3 -56
-9 -17 -16 -33 -16 -35 0 -10 19 1 50 30 109 100 151 102 195 7 9 -19 25 -51
35 -70 21 -39 25 -81 10 -96 -15 -15 -1 -164 16 -164 9 0 14 13 14 38 0 22 6
52 14 68 9 16 18 77 22 139 6 101 5 115 -15 153 -26 50 -70 76 -115 68 -31 -6
-91 -41 -148 -88 -49 -39 -49 5 -1 62 14 17 26 42 27 55 0 14 6 25 12 25 7 0
38 12 70 27 33 15 67 26 76 26 21 -2 71 44 63 57 -3 5 2 24 11 41 12 24 15 53
12 119 -3 95 6 126 18 64 l8 -39 7 45 c3 25 3 68 -1 95 -9 57 -5 68 16 41 27
-38 34 -3 9 49 -28 59 -33 100 -10 91 10 -4 15 1 15 15 0 16 5 20 20 16 25 -7
25 3 -1 49 l-20 36 23 -6 c80 -21 75 -21 57 0 -9 10 -15 24 -13 30 3 5 -7 21
-21 34 -31 29 -32 42 -2 40 39 -4 40 -1 8 29 -38 36 -39 46 -3 60 15 6 36 16
47 23 11 7 22 14 24 16 3 1 -11 18 -29 37 -34 35 -34 35 -9 35 l24 1 -30 27
c-17 15 -41 35 -55 44 l-25 17 29 0 28 1 -23 18 c-29 24 -20 52 17 52 24 0 25
2 13 17 -13 15 -12 16 6 8 11 -4 31 -8 45 -7 14 0 32 -5 40 -12 8 -7 22 -17
30 -21 18 -10 11 -1 -63 84 -51 57 -56 77 -11 42 36 -29 42 -19 10 16 -15 15
-38 48 -53 73 -45 78 -115 184 -142 214 l-26 30 30 -18 c17 -10 40 -29 53 -42
27 -29 43 -32 17 -4 -17 19 -17 20 9 31 16 7 25 18 22 26 -7 17 7 16 67 -2 26
-8 47 -10 47 -6 0 5 -6 11 -13 14 -16 6 -137 99 -169 129 -13 13 -34 30 -46
38 -12 8 -22 18 -22 23 0 4 -10 21 -22 37 -12 16 -18 33 -14 37 4 4 10 2 14
-4 6 -9 19 -9 52 -2 117 26 170 42 170 51 0 5 -10 6 -22 3 -13 -4 -30 -9 -39
-11 -9 -2 -42 2 -75 10 -45 11 -52 15 -29 16 l30 2 -35 13 c-19 7 -54 14 -77
14 -23 1 -45 6 -48 11 -3 6 1 10 9 10 9 0 16 4 16 9 0 13 -52 24 -59 12 -7
-11 -159 124 -254 226 -62 67 -87 102 -52 73 8 -6 29 -15 47 -19 18 -5 44 -11
58 -15 l25 -8 -25 18 c-14 11 -29 18 -34 16 -11 -4 -59 28 -52 35 3 3 12 0 20
-6 8 -7 25 -14 38 -16 13 -1 51 -10 84 -19 34 -9 79 -16 100 -15 l39 1 -50 13
c-107 30 -295 145 -295 182 0 14 3 13 25 -1 13 -9 29 -16 35 -16 21 0 8 18
-32 45 -24 16 -54 36 -68 46 -14 11 -50 35 -80 55 -178 118 -189 124 -430 252
-188 99 -519 187 -749 199 l-123 6 56 28 c92 46 247 171 231 187 -2 3 -25 -12
-51 -33 -58 -48 -245 -149 -337 -182 -38 -14 -84 -33 -101 -44 -33 -20 -61
-25 -51 -9 3 5 0 19 -7 30 -12 19 -10 24 17 46 l30 25 -30 -12 c-16 -7 -36
-17 -42 -22 -9 -6 -13 -5 -13 2 0 6 4 11 9 11 5 0 40 24 77 53 38 30 89 65
114 80 68 40 19 34 -54 -7 -34 -19 -86 -47 -116 -63 -30 -16 -67 -37 -82 -47
-15 -10 -33 -16 -40 -14 -7 3 -40 -10 -73 -28 -33 -18 -86 -38 -118 -45 -32
-7 -60 -16 -63 -21 -3 -4 -14 -8 -26 -8 -11 0 -52 -23 -90 -51 -76 -55 -106
-62 -36 -8 24 18 72 58 107 88 95 83 197 164 279 221 96 67 95 76 -8 39z m103
-1700 c45 -6 118 -18 162 -26 44 -8 102 -19 129 -24 26 -4 69 -15 95 -23 25
-8 57 -16 71 -19 46 -9 204 -69 298 -113 51 -24 96 -44 101 -44 4 0 16 -9 25
-19 10 -11 32 -25 49 -32 18 -7 62 -36 99 -63 37 -28 106 -80 154 -116 48 -36
109 -86 135 -112 63 -63 129 -186 180 -338 41 -122 42 -129 47 -290 2 -91 0
-217 -6 -280 -7 -75 -8 -153 -2 -225 24 -282 24 -315 1 -405 -12 -47 -48 -152
-80 -235 -33 -82 -62 -165 -66 -184 -12 -58 -53 -166 -62 -163 -4 1 -9 -6 -11
-18 -2 -12 -11 -20 -23 -20 -14 0 -21 -9 -26 -31 -3 -17 -12 -33 -19 -36 -8
-3 -14 -11 -14 -19 0 -8 -7 -14 -15 -14 -10 0 -15 -10 -15 -31 0 -24 -4 -30
-15 -25 -8 3 -30 -4 -49 -15 -18 -10 -41 -17 -50 -13 -10 4 -16 1 -16 -8 0
-20 -23 -68 -33 -68 -5 0 -5 9 -2 20 4 11 2 20 -4 20 -6 0 -12 -8 -13 -17 0
-10 -2 -30 -3 -44 -3 -37 -14 -54 -28 -40 -15 15 -27 14 -21 -2 3 -8 -2 -20
-11 -27 -8 -7 -15 -21 -15 -32 0 -14 -5 -18 -15 -14 -9 3 -15 0 -15 -9 0 -8
-4 -15 -10 -15 -5 0 -10 7 -10 16 0 8 -4 12 -10 9 -5 -3 -10 -17 -10 -30 0
-15 -7 -26 -19 -30 -11 -3 -21 -16 -23 -28 -2 -12 -9 -21 -16 -20 -6 2 -15 -9
-18 -25 -4 -15 -16 -42 -28 -61 -11 -19 -39 -89 -61 -154 -22 -66 -44 -118
-50 -116 -10 4 -11 60 -6 282 3 144 -19 215 -84 272 -25 21 -58 41 -73 43 -14
2 -33 9 -41 15 -11 9 -15 9 -18 0 -6 -18 -28 -16 -43 2 -17 21 -30 19 -30 -5
0 -26 -20 -26 -27 1 -4 14 -12 19 -24 16 -10 -3 -25 4 -35 14 -21 23 -34 24
-34 3 0 -23 -23 -12 -38 19 -14 29 -27 34 -35 15 -3 -9 -14 -3 -29 16 -14 16
-30 26 -36 23 -6 -4 -19 4 -30 18 -11 13 -21 22 -24 20 -3 -3 -13 4 -23 15
-10 11 -26 20 -36 20 -24 0 -46 39 -29 50 9 5 9 9 1 14 -6 4 -11 12 -11 18 0
6 6 6 15 -2 13 -11 15 -10 10 1 -7 19 10 43 25 34 7 -4 10 -20 8 -36 -3 -19 0
-29 8 -29 18 0 84 40 84 51 0 5 7 9 15 9 17 0 35 30 35 59 0 11 -20 41 -45 65
-48 49 -116 76 -187 76 -22 0 -59 5 -84 11 -31 8 -49 8 -55 2 -7 -7 -23 -7
-42 -3 -163 41 -196 41 -231 0 -48 -58 -58 -178 -15 -200 27 -15 32 -45 13
-82 -9 -18 -20 -35 -23 -38 -4 -3 -17 -20 -30 -37 -12 -18 -29 -33 -36 -33 -8
0 -19 -9 -25 -19 -6 -13 -17 -17 -30 -14 -12 3 -29 -2 -40 -12 -11 -10 -23
-15 -27 -12 -3 4 -15 0 -25 -10 -10 -9 -18 -11 -18 -6 0 12 -97 -37 -145 -73
-58 -44 -73 -123 -60 -319 11 -167 2 -351 -18 -371 -2 -2 -10 31 -17 73 -14
92 -48 284 -64 368 -6 33 -21 78 -32 100 -12 22 -24 53 -28 69 -6 22 -10 26
-16 16 -6 -10 -15 2 -33 42 -14 31 -28 65 -32 77 -3 12 -10 21 -15 21 -5 0
-12 15 -15 33 -10 43 -16 52 -26 36 -5 -9 -12 3 -20 34 -12 49 -29 63 -29 25
-1 -36 -47 83 -54 139 -4 26 -8 71 -11 98 -7 83 -22 147 -67 292 -43 137 -43
139 -42 288 0 102 8 194 22 288 16 100 22 184 22 297 0 175 14 385 32 470 7
30 13 64 13 75 1 11 7 39 13 63 20 71 30 115 37 160 12 73 96 262 117 262 4 0
8 6 8 13 0 11 86 105 123 134 9 7 19 19 24 26 11 18 164 117 181 117 7 0 27 7
44 16 46 24 209 64 338 84 138 20 381 25 493 9z m1337 -3079 c1 8 6 4 10 -10
12 -37 12 -140 0 -140 -5 0 -10 11 -10 24 0 14 -4 27 -9 30 -11 7 -18 -19 -27
-101 -3 -35 -11 -63 -15 -63 -5 0 -9 -5 -9 -12 0 -13 -29 -48 -40 -48 -4 0
-10 12 -13 28 -7 33 13 112 28 112 6 0 11 16 11 36 0 19 6 39 12 43 7 4 15 32
18 62 8 80 13 89 29 54 7 -16 14 -23 15 -15z m-852 -262 c11 -9 12 -35 7 -122
-3 -61 -8 -120 -10 -131 -2 -11 -4 -23 -4 -27 -1 -5 -8 -8 -16 -8 -8 0 -15 -7
-15 -15 0 -9 -7 -18 -15 -21 -8 -3 -19 -25 -25 -48 -6 -22 -15 -49 -20 -58 -5
-10 -7 -24 -4 -33 3 -8 1 -15 -5 -15 -7 0 -11 -6 -10 -12 4 -30 -2 -48 -15
-48 -7 0 -21 -16 -30 -35 -9 -19 -23 -35 -30 -35 -8 0 -16 -7 -20 -15 -3 -8
-12 -15 -20 -15 -7 0 -16 -7 -20 -15 -3 -8 -15 -15 -26 -15 -11 0 -20 -7 -20
-15 0 -8 -9 -15 -20 -15 -10 0 -24 -9 -30 -21 -6 -11 -19 -19 -28 -17 -9 2
-29 -10 -44 -25 -28 -30 -47 -29 -49 1 0 9 -7 1 -16 -18 -14 -33 -15 -34 -30
-15 -11 15 -17 16 -20 7 -3 -7 -15 -25 -28 -40 -23 -26 -23 -27 -44 -8 -21 19
-21 19 -21 -7 0 -28 -14 -37 -23 -14 -4 9 -8 9 -15 -2 -8 -11 -11 -10 -16 7
-5 14 -13 18 -27 15 -12 -4 -25 0 -30 8 -7 11 -9 9 -9 -6 -1 -14 -5 -10 -16
15 -11 25 -17 31 -23 21 -6 -10 -14 -5 -30 17 -11 17 -21 36 -21 42 0 9 -4 9
-13 2 -15 -13 -31 -4 -40 22 -6 15 -10 16 -22 6 -19 -16 -37 -3 -30 21 9 27
-3 56 -25 62 -12 3 -17 0 -14 -8 3 -7 0 -16 -7 -21 -8 -5 -11 -2 -7 7 3 8 1
25 -3 38 -8 21 -14 23 -47 18 -41 -5 -76 8 -67 24 7 10 -20 41 -28 33 -3 -4
-10 -3 -16 1 -7 4 -6 18 4 43 13 29 13 42 4 64 -6 15 -9 35 -5 43 3 9 -1 18
-10 22 -11 4 -14 13 -10 29 4 14 2 24 -5 24 -6 0 -8 11 -4 29 4 20 2 30 -9 34
-8 3 -15 18 -14 34 0 15 -5 48 -11 73 -11 49 -15 123 -5 132 9 10 83 -27 117
-59 44 -42 77 -79 77 -89 0 -4 10 -18 22 -31 19 -20 22 -36 23 -96 0 -64 2
-72 20 -75 11 -2 27 -10 35 -17 26 -24 187 -48 270 -41 89 7 195 53 212 92 6
13 15 24 20 24 5 0 8 17 6 38 l-3 37 -50 1 c-73 2 -77 3 -70 14 3 6 -1 7 -10
4 -8 -4 -29 -1 -46 6 -17 7 -49 14 -72 14 -23 1 -42 6 -45 14 -3 9 2 10 21 3
14 -6 28 -6 33 -1 5 5 47 12 94 16 47 4 90 10 95 14 6 3 30 12 55 19 25 7 52
17 60 22 29 18 168 86 192 94 60 21 76 23 113 19 21 -3 45 -10 53 -16z m807
-248 c-4 -11 -10 -56 -14 -100 -5 -44 -15 -87 -22 -96 -16 -19 -68 -108 -100
-172 -13 -26 -30 -44 -45 -48 -17 -4 -24 -13 -24 -29 0 -18 -7 -25 -31 -30
-22 -5 -34 -3 -40 6 -12 19 -11 42 0 34 14 -8 24 33 23 93 -1 30 3 52 9 52 6
0 7 5 4 11 -4 5 15 33 42 62 26 29 80 94 118 144 69 91 93 113 80 73z"/>
<path d="M3985 6528 c-83 -46 -109 -64 -157 -109 -26 -25 -48 -51 -48 -57 0
-8 17 -12 45 -12 33 0 45 -4 45 -15 0 -8 6 -15 13 -15 27 0 35 -20 20 -51 -8
-16 -19 -29 -25 -29 -6 0 -8 -10 -5 -21 3 -12 -2 -38 -12 -58 -19 -36 -38
-191 -33 -260 4 -43 42 -81 82 -81 16 0 35 -6 42 -14 37 -39 52 -63 53 -84 1
-12 10 -28 20 -36 16 -12 17 -16 6 -29 -23 -29 -9 -59 44 -88 28 -15 63 -28
78 -28 16 -1 48 -6 72 -12 28 -7 54 -8 71 -2 16 5 50 6 77 2 37 -6 57 -4 79 7
22 11 41 13 71 8 23 -4 46 -7 51 -5 17 4 66 -21 66 -35 0 -31 28 -11 48 36 38
88 101 285 111 351 12 74 17 267 7 276 -3 4 -6 19 -6 34 0 15 -4 31 -10 34 -5
3 -10 15 -10 25 0 12 -5 17 -13 14 -8 -3 -20 2 -27 11 -7 8 -18 15 -25 15 -7
0 -23 11 -36 24 -13 13 -40 27 -59 30 -19 4 -48 13 -65 21 -85 38 -139 56
-235 81 -58 15 -118 28 -135 30 -59 5 -106 19 -157 45 -21 11 -18 11 -43 -3z
m151 -586 c-8 -13 22 -103 41 -124 18 -20 4 -25 -15 -6 -7 7 -12 8 -12 3 1
-41 83 -68 180 -59 49 5 62 3 54 -5 -6 -7 -47 -13 -95 -14 -74 -1 -91 2 -140
26 -83 40 -114 114 -67 164 20 21 66 34 54 15z"/>
<path d="M5903 6430 c-12 -10 -245 -46 -271 -41 -7 1 -48 -5 -90 -13 -42 -9
-86 -16 -97 -16 -42 0 -74 -5 -81 -12 -4 -5 -20 -8 -35 -8 -15 0 -29 -7 -33
-16 -4 -10 -14 -14 -26 -11 -11 3 -23 1 -26 -5 -3 -5 -15 -7 -26 -5 -21 6 -64
-31 -70 -60 -2 -10 -10 -17 -16 -15 -18 3 -15 -15 4 -22 9 -3 14 -15 12 -28
-2 -18 1 -23 19 -21 29 3 34 -14 39 -152 7 -167 10 -184 40 -195 16 -7 24 -17
24 -34 0 -16 11 -33 29 -47 16 -12 32 -31 35 -43 6 -24 46 -44 103 -53 21 -3
47 -10 58 -16 88 -46 445 -54 445 -10 0 7 7 16 15 19 8 4 15 13 15 21 0 13
-10 15 -55 10 -82 -8 -183 9 -210 36 l-23 22 84 0 c81 0 84 1 118 34 34 33 71
114 61 132 -3 4 15 1 40 -7 41 -14 86 -54 98 -86 2 -8 8 -9 13 -4 5 5 4 11 -3
13 -7 3 -13 10 -13 16 0 8 4 7 12 -1 22 -22 78 -8 78 19 0 20 -124 86 -214
114 -10 3 -16 8 -13 11 3 4 21 1 39 -5 30 -10 31 -9 14 4 -11 8 -31 15 -45 15
-34 0 -212 59 -231 76 -23 22 2 38 59 36 129 -3 286 -71 384 -166 20 -20 37
-44 37 -52 0 -11 8 -14 29 -11 41 7 49 13 56 46 7 33 -19 89 -60 131 -13 14
-41 42 -61 62 -20 21 -49 43 -64 50 -16 7 -26 18 -23 25 3 8 -8 15 -35 19 -53
8 -60 33 -24 86 22 34 30 39 54 34 15 -3 30 0 34 6 4 6 25 8 58 4 l51 -6 -30
25 c-29 23 -29 24 -7 25 13 0 22 6 22 15 0 16 -16 20 -24 6 -9 -14 -46 -1 -59
20 -14 22 -32 26 -24 5 8 -20 -23 -13 -39 9 -10 14 -29 19 -78 20 -35 2 -68
-1 -73 -5z"/>
<path d="M3326 5891 c-13 -20 -36 -190 -36 -260 0 -60 5 -86 25 -126 13 -27
25 -58 25 -67 0 -30 18 -20 25 15 4 17 13 42 21 54 14 23 37 183 35 245 -1 20
3 39 9 43 5 3 10 1 10 -6 0 -10 3 -10 11 -2 16 16 -4 47 -55 83 -46 31 -61 36
-70 21z"/>
<path d="M6940 5534 c-6 -16 -12 -54 -12 -85 -1 -55 0 -57 54 -110 30 -30 58
-63 62 -75 8 -26 -20 -84 -41 -84 -22 0 -76 -57 -60 -64 6 -3 2 -3 -10 0 -12
3 -33 -1 -45 -8 -13 -7 -27 -12 -32 -13 -15 0 -44 -55 -51 -96 -10 -54 10 -53
95 3 88 57 183 108 204 108 26 0 75 50 81 84 11 55 -13 156 -53 220 -34 54
-94 106 -124 106 -6 0 -22 10 -35 21 l-22 22 -11 -29z"/>
<path d="M8701 2153 c0 -4 73 -51 162 -103 89 -52 197 -119 240 -148 108 -73
336 -216 386 -241 22 -12 41 -26 41 -31 0 -9 -138 -217 -236 -355 -24 -33 -53
-73 -64 -90 -12 -16 -70 -97 -130 -180 -223 -306 -370 -545 -460 -742 -13 -29
-27 -53 -32 -53 -4 0 -56 33 -115 74 -60 40 -191 124 -293 186 -434 265 -702
408 -852 455 -49 16 -93 34 -100 42 -14 17 -5 15 142 -27 197 -56 456 -175
850 -389 125 -68 168 -87 176 -78 6 7 56 98 110 202 53 105 124 240 155 300
32 61 58 113 59 116 0 4 -28 18 -62 32 -35 14 -106 45 -158 70 -52 24 -162 74
-245 110 -140 60 -208 87 -520 204 -129 49 -444 153 -460 153 -10 0 -149 -341
-199 -485 -13 -38 -31 -86 -40 -107 -17 -39 -16 -42 37 -68 32 -16 34 -32 9
-68 -27 -40 -66 -134 -101 -242 -52 -161 -148 -525 -170 -645 l-8 -45 1626 0
1626 0 12 25 c9 20 9 31 -3 53 -8 15 -17 44 -20 65 -4 20 -11 40 -15 43 -5 3
-9 16 -9 29 0 13 -4 27 -10 30 -5 3 -10 18 -10 33 0 28 -17 82 -37 118 -7 11
-9 30 -6 42 4 18 1 22 -17 22 -16 0 -21 5 -18 23 1 12 -5 33 -15 47 -9 13 -17
35 -17 47 0 13 -4 23 -10 23 -5 0 -10 12 -10 28 0 15 -9 35 -21 45 -13 12 -18
24 -14 37 3 11 -1 27 -12 40 -10 11 -18 24 -19 28 -1 13 -28 67 -37 73 -4 3
-7 10 -6 15 3 12 -22 64 -31 64 -4 0 -11 16 -14 36 -4 19 -16 50 -27 67 -10
18 -19 38 -19 45 0 8 -8 26 -19 40 -10 15 -18 34 -18 42 0 8 -12 41 -27 72
-36 77 -48 195 -21 214 10 8 16 16 13 20 -9 8 -42 -27 -89 -96 -37 -55 -59
-79 -59 -66 0 16 141 216 152 216 4 0 8 11 8 25 0 30 -7 31 -33 8 -19 -17 -20
-17 -8 5 9 16 9 22 0 22 -7 0 -9 9 -5 23 5 20 -3 26 -67 56 -40 19 -103 54
-142 80 -38 25 -74 48 -80 50 -5 2 -23 14 -40 25 -16 12 -37 26 -46 31 -9 6
-64 42 -123 82 -58 40 -110 73 -114 74 -7 2 -31 16 -92 54 -31 20 -152 91
-172 102 -5 2 -8 1 -7 -4z m-941 -691 c103 -31 239 -85 504 -201 111 -49 244
-106 296 -126 52 -21 103 -42 113 -47 16 -8 11 -23 -59 -156 -43 -81 -101
-192 -129 -247 -69 -133 -88 -165 -100 -165 -6 0 -76 37 -155 81 -205 116
-454 238 -573 283 -137 51 -186 78 -196 108 -11 32 -5 57 18 74 13 10 13 14 1
29 -10 12 -11 18 -2 24 6 4 18 40 27 81 9 45 23 81 35 92 11 11 20 31 20 46 0
66 12 102 34 103 20 1 20 1 1 7 -26 9 -31 49 -7 54 19 4 48 -2 172 -40z"/>
<path d="M2115 1901 c-191 -99 -231 -121 -399 -229 -109 -71 -116 -77 -89 -80
38 -4 279 52 528 123 105 30 240 63 300 75 168 33 179 63 39 110 -44 15 -101
41 -126 58 -26 18 -55 32 -65 32 -10 -1 -94 -40 -188 -89z m319 -25 c36 -16
56 -30 50 -36 -5 -5 -51 -18 -102 -29 -52 -11 -148 -38 -215 -60 -198 -64
-366 -103 -336 -77 34 29 208 136 258 159 185 84 238 91 345 43z"/>
<path d="M8017 1773 c-14 -32 -47 -95 -72 -141 l-46 -83 38 -15 c157 -66 610
-224 642 -224 10 0 26 11 35 25 21 32 34 32 109 -7 75 -38 188 -79 199 -72 4
3 8 9 8 14 0 17 -428 305 -585 394 -33 19 -112 64 -174 100 -63 36 -118 66
-121 66 -3 0 -18 -26 -33 -57z"/>
<path d="M885 1769 c-65 -27 -69 -31 -113 -108 -47 -83 -100 -218 -152 -385
-23 -72 -54 -165 -71 -207 -16 -42 -49 -139 -74 -215 -25 -76 -50 -147 -55
-156 -6 -10 -10 -25 -10 -34 0 -8 -7 -22 -15 -30 -8 -9 -15 -24 -15 -34 0 -10
-5 -22 -10 -25 -6 -3 -10 -15 -10 -26 0 -10 -4 -27 -9 -37 -47 -89 -68 -150
-123 -357 -6 -22 -17 -59 -24 -83 -8 -23 -14 -49 -14 -57 0 -13 197 -15 1561
-15 1481 0 1560 1 1555 18 -3 9 -12 51 -20 92 -39 200 -140 662 -176 805 -52
208 -241 809 -270 855 -7 12 -31 10 -157 -9 -301 -46 -488 -97 -908 -251 -137
-51 -270 -99 -295 -107 -25 -9 -49 -19 -54 -24 -5 -4 6 -31 26 -61 19 -29 54
-89 78 -133 24 -44 81 -145 128 -225 47 -80 101 -173 120 -207 18 -35 35 -63
37 -63 2 0 41 16 87 36 219 94 434 161 701 218 167 36 237 44 237 26 0 -17
-53 -37 -185 -69 -271 -66 -544 -168 -710 -266 -131 -78 -200 -129 -320 -234
-58 -51 -107 -92 -109 -90 -2 2 -28 51 -59 109 -58 108 -100 178 -299 497
-207 334 -274 481 -285 624 -8 101 1 139 42 194 49 64 48 65 -30 34z"/>
<path d="M1306 1325 c13 -54 23 -75 109 -225 46 -81 130 -239 185 -351 103
-209 120 -238 120 -204 -1 53 -132 317 -324 649 -96 166 -101 174 -90 131z"/>
<path d="M5433 448 c-18 -56 -57 -177 -88 -267 -30 -91 -55 -168 -55 -173 0
-4 77 -8 170 -8 164 0 170 1 161 19 -6 11 -7 29 -1 47 10 33 29 125 35 169 2
17 15 55 29 85 14 30 26 61 26 68 0 23 54 83 93 103 25 13 50 18 76 15 21 -2
44 0 52 5 9 6 -3 9 -36 9 -27 0 -86 4 -130 9 -44 5 -129 12 -190 16 l-110 7
-32 -104z"/>
</g>
</svg>
